<svg width="401" height="294" viewBox="0 0 401 294" fill="none" xmlns="http://www.w3.org/2000/svg">
<mask id="path-1-inside-1_80_3043" fill="white">
<ellipse cx="211.302" cy="178.122" rx="91.019" ry="44.0117"/>
</mask>
<path d="M302.753 178.122C302.465 178.122 302.177 178.122 301.889 178.122C301.892 185.349 297.904 191.986 292.795 196.949C270.904 216.338 239.878 220.853 211.302 221.162C193.203 221.07 174.974 218.61 157.936 212.605C141.754 206.648 122.275 196.422 121.435 178.122C121.435 178.122 121.435 178.122 121.435 178.122C122.275 159.823 141.754 149.596 157.936 143.639C174.974 137.634 193.203 135.174 211.302 135.082C239.878 135.391 270.903 139.906 292.795 159.295C297.904 164.258 301.892 170.895 301.889 178.122C302.177 178.122 302.465 178.122 302.753 178.122C302.857 170.589 298.775 163.633 293.597 158.488C271.409 138.402 240.18 133.663 211.302 133.138C193.016 133.113 174.57 135.495 157.196 141.552C140.788 147.662 120.323 157.633 119.131 178.122C119.131 178.122 119.131 178.122 119.131 178.122C120.323 198.611 140.788 208.583 157.196 214.692C174.57 220.749 193.016 223.131 211.302 223.106C240.18 222.581 271.409 217.842 293.597 197.756C298.775 192.611 302.857 185.656 302.753 178.122ZM301.889 178.122H302.753H301.889Z" fill="#F2EEE9" mask="url(#path-1-inside-1_80_3043)"/>
<mask id="path-3-inside-2_80_3043" fill="white">
<ellipse cx="189.035" cy="128.203" rx="91.019" ry="44.0117" transform="rotate(-45 189.035 128.203)"/>
</mask>
<path d="M254.617 62.621C253.802 63.4357 252.988 64.2504 252.173 65.0651C256.853 69.9559 258.49 77.0298 258.265 83.887C256.07 112.022 237.304 136.7 217.406 156.575C204.617 168.985 190.135 179.825 174.253 187.324C159.001 194.476 138.771 199.702 127.933 189.305C127.933 189.305 127.933 189.305 127.933 189.305C117.536 178.467 122.762 158.238 129.914 142.985C137.413 127.103 148.253 112.621 160.663 99.8318C180.538 79.9342 205.216 61.168 233.351 58.9731C240.208 58.7485 247.282 60.385 252.173 65.0651C252.988 64.2504 253.802 63.4357 254.617 62.621C249.145 56.7891 240.902 54.5198 233.337 54.4221C202.391 55.4833 176.505 74.1936 155.164 94.3327C141.893 107.319 130.224 122.194 121.919 139.173C114.559 155.498 105.822 177.795 121.416 195.822C121.416 195.822 121.416 195.822 121.416 195.822C139.443 211.416 161.74 202.679 178.065 195.319C195.044 187.014 209.919 175.345 222.905 162.074C243.044 140.733 261.755 114.847 262.816 83.9011C262.718 76.3358 260.449 68.0928 254.617 62.621ZM252.173 65.0651L254.617 62.621L252.173 65.0651Z" fill="#F2EEE9" mask="url(#path-3-inside-2_80_3043)"/>
<mask id="path-5-inside-3_80_3043" fill="white">
<ellipse cx="208.036" cy="161.006" rx="91.019" ry="44.0117" transform="rotate(-15 208.036 161.006)"/>
</mask>
<path d="M296.788 137.225C296.232 137.374 295.676 137.523 295.119 137.673C296.904 144.518 294.775 151.795 291.133 157.814C275.059 181.833 246.329 194.09 218.924 201.64C201.493 206.155 183.342 208.432 165.5 207.023C148.457 205.501 127.438 200.414 122.344 183.967C122.344 183.967 122.344 183.967 122.344 183.967C118.532 167.177 134.192 152.262 148.19 142.423C162.938 132.281 179.795 125.178 197.148 120.372C224.657 113.209 255.666 109.459 281.596 122.222C287.76 125.615 293.242 130.852 295.119 137.673C295.676 137.523 296.232 137.374 296.788 137.225C294.948 129.761 289.118 123.957 282.728 120.248C255.864 106.291 224.345 109.715 196.142 116.616C178.366 121.292 161.052 128.358 145.682 138.774C131.324 149.025 113.628 163.958 117.893 185.16C117.893 185.16 117.893 185.16 117.893 185.16C124.8 205.654 147.593 209.739 165.152 211.438C183.671 212.772 202.198 210.235 219.93 205.396C247.806 197.272 276.814 184.477 293.1 158.958C296.779 152.551 298.926 144.61 296.788 137.225ZM295.119 137.673L296.788 137.225L295.119 137.673Z" fill="#F2EEE9" mask="url(#path-5-inside-3_80_3043)"/>
<mask id="path-7-inside-4_80_3043" fill="white">
<ellipse cx="200.669" cy="143.998" rx="91.019" ry="44.0117" transform="rotate(-30 200.669 143.998)"/>
</mask>
<path d="M280.616 97.8408C279.867 98.2728 279.119 98.7049 278.371 99.1369C281.746 105.18 281.534 112.598 279.559 119.259C270.203 146.243 245.656 165.371 221.216 179.588C205.599 188.363 188.731 195.172 171.29 198.367C154.57 201.318 133.314 201.488 124.837 187.78C124.837 187.78 124.837 187.78 124.837 187.78C117.204 173.584 127.979 155.261 138.894 142.256C150.381 128.75 164.713 117.546 180.121 108.409C204.653 94.3513 233.491 82.6576 261.538 88.0471C268.295 89.6667 274.825 93.1926 278.371 99.1369C279.119 98.7049 279.867 98.2728 280.616 97.8408C276.873 90.9492 269.619 86.738 262.411 84.7474C232.548 77.9909 202.845 89.4096 177.204 103.357C161.135 112.471 146.126 123.798 133.842 137.943C122.568 151.683 108.849 170.824 118.85 191.236C118.85 191.236 118.85 191.236 118.85 191.236C131.527 210.104 154.963 207.793 172.5 204.899C190.891 201.334 208.205 194 224.133 184.639C249.032 169.408 273.773 149.393 282.853 120.153C284.732 112.916 284.713 104.528 280.616 97.8408ZM278.371 99.1369L280.616 97.8408L278.371 99.1369Z" fill="#F2EEE9" mask="url(#path-7-inside-4_80_3043)"/>
</svg>
